<svg xmlns="http://www.w3.org/2000/svg" width="20" height="20" viewBox="0 0 20 20">
  <g id="Grupo_561" data-name="Grupo 561" transform="translate(-114 -191)">
    <rect id="Rectángulo_437" data-name="Rectángulo 437" width="20" height="20" transform="translate(114 191)" fill="none"/>
    <path id="briefcase" d="M16.312,35.375H13.5V33.688A1.687,1.687,0,0,0,11.812,32H6.188A1.687,1.687,0,0,0,4.5,33.688v1.688H1.687A1.687,1.687,0,0,0,0,37.063v9A1.687,1.687,0,0,0,1.687,47.75H16.312A1.687,1.687,0,0,0,18,46.063v-9A1.687,1.687,0,0,0,16.312,35.375ZM6.188,33.688h5.625v1.688H6.188ZM1.9,37.063H16.1a.211.211,0,0,1,.211.211v2.6H1.687v-2.6A.211.211,0,0,1,1.9,37.063Zm14.2,9H1.9a.211.211,0,0,1-.211-.211V41.563H6.75v.844a.844.844,0,0,0,.844.844h2.813a.844.844,0,0,0,.844-.844v-.844h5.062v4.289A.211.211,0,0,1,16.1,46.063Z" transform="translate(115 161.1)" fill="#007db3"/>
  </g>
</svg>
