<svg xmlns="http://www.w3.org/2000/svg" width="1434.897" height="677.269" viewBox="0 0 1434.897 677.269">
  <g id="Grupo_595" data-name="Grupo 595" transform="translate(68 -2396.117)">
    <path id="Trazado_1283" data-name="Trazado 1283" d="M1366.638,0s-384.4,34.6-717.2-43.8S188.638-71,.638,0c-2.4,164.2,1.758,319.545,0,490,360.546-3.182,512.667,113.182,949.03,103.485S1366.638,490,1366.638,490Z" transform="translate(0.129 2479.327)" fill="#eaeaea"/>
    <path id="Exclusión_4" data-name="Exclusión 4" d="M91.526,183.052a92.2,92.2,0,0,1-18.446-1.859A91.025,91.025,0,0,1,40.353,167.42a91.793,91.793,0,0,1-33.16-40.269,91.064,91.064,0,0,1-5.333-17.18,92.418,92.418,0,0,1,0-36.891A91.025,91.025,0,0,1,15.631,40.353,91.793,91.793,0,0,1,55.9,7.193,91.065,91.065,0,0,1,73.08,1.859a92.418,92.418,0,0,1,36.891,0A91.025,91.025,0,0,1,142.7,15.631,91.793,91.793,0,0,1,175.859,55.9a91.064,91.064,0,0,1,5.333,17.18,92.417,92.417,0,0,1,0,36.891A91.025,91.025,0,0,1,167.42,142.7a91.793,91.793,0,0,1-40.269,33.16,91.063,91.063,0,0,1-17.18,5.333A92.2,92.2,0,0,1,91.526,183.052Zm0-159.572a68.047,68.047,0,1,0,68.047,68.047A68.124,68.124,0,0,0,91.526,23.479Z" transform="translate(-68 2890.335)" fill="#0e8ebf"/>
    <circle id="Elipse_33" data-name="Elipse 33" cx="74.844" cy="74.844" r="74.844" transform="translate(1102.506 2740.313)" fill="#dcdcdc"/>
  </g>
</svg>
