<svg xmlns="http://www.w3.org/2000/svg" width="200" height="50.403" viewBox="0 0 200 50.403">
  <g id="Logotipo_Multiplika" data-name="Logotipo Multiplika" transform="translate(-64.999 -222.582)">
    <g id="Grupo_359" data-name="Grupo 359" transform="translate(109.427 222.582)">
      <path id="Trazado_203" data-name="Trazado 203" d="M221.166,349.814l-4.492,8.486c0,.006,0,.006-.006.018l-.042.082c-.242.511-1.888.565-2.2.094l-2.205-3.323a.947.947,0,0,1-.063-.958l1.329-2.659,1.435-2.858.924-1.716A6.531,6.531,0,0,0,221.166,349.814Z" transform="translate(-212.057 -309.398)" fill="#fff"/>
      <path id="Unión_5" data-name="Unión 5" d="M1.293,34.068C.435,34.02,0,33.428,0,32.3v-4.35l10.585-19.7L7.9,7.824,17.743.087a.4.4,0,0,1,.65.342l-.749,12.613-1.89-2.1v0l-6.8,12.855H5.456a2.428,2.428,0,0,0-2.429,2.423v6A1.948,1.948,0,0,1,2.5,33.546a1.54,1.54,0,0,1-1.13.523Z" transform="translate(8.958)" fill="#fff"/>
    </g>
    <g id="Grupo_360" data-name="Grupo 360" transform="translate(64.999 229.563)">
      <path id="Trazado_206" data-name="Trazado 206" d="M114,287.141l-12.115-40.519a1.311,1.311,0,0,0-2.447-.169l-9.9,20.767-9.547-15.982a1.311,1.311,0,0,0-2.447.169L65.069,287.141a.733.733,0,0,0,.677,1.042l4.946-.094a.724.724,0,0,0,.64-.423L79.2,263.135a.728.728,0,0,1,1.266-.1l8.414,14.115a.722.722,0,0,0,.656.317.713.713,0,0,0,.656-.317l8.767-18.9a.728.728,0,0,1,1.266.1l7.51,29.317a.724.724,0,0,0,.64.423l4.946.094A.732.732,0,0,0,114,287.141Z" transform="translate(-64.999 -245.688)" fill="#fff"/>
    </g>
    <g id="Grupo_361" data-name="Grupo 361" transform="translate(119.445 266.055)">
      <path id="Trazado_207" data-name="Trazado 207" d="M246.616,368.24h3.876l-.275,1.015h-2.743l-.281,1.06H249.6l-.275,1h-2.408l-.3,1.1h2.785l-.275,1.015H245.22Z" transform="translate(-245.22 -367.708)" fill="#fff"/>
      <path id="Trazado_208" data-name="Trazado 208" d="M262.623,372.1h1.127l-.112.411a2.74,2.74,0,0,1,.48-.338,1.207,1.207,0,0,1,.6-.148,1.171,1.171,0,0,1,.852.308,1.132,1.132,0,0,1,.32.849,1.774,1.774,0,0,1-.039.366c-.027.13-.057.26-.094.39l-.571,2.133h-1.127l.586-2.184a1.382,1.382,0,0,0,.036-.181,1.334,1.334,0,0,0,.015-.175.463.463,0,0,0-.145-.366.591.591,0,0,0-.4-.127.733.733,0,0,0-.55.221,1.256,1.256,0,0,0-.311.574l-.6,2.236H261.56Z" transform="translate(-256.623 -370.346)" fill="#fff"/>
      <path id="Trazado_209" data-name="Trazado 209" d="M279.363,376.033a1.777,1.777,0,0,1-.586-.363,1.652,1.652,0,0,1-.381-.562,1.919,1.919,0,0,1-.136-.737,2.218,2.218,0,0,1,.19-.915,2.391,2.391,0,0,1,1.254-1.242,2.223,2.223,0,0,1,.9-.184,2.328,2.328,0,0,1,.586.069,1.7,1.7,0,0,1,.456.187,1.532,1.532,0,0,1,.341.275,2,2,0,0,1,.248.335l-.861.607a1.457,1.457,0,0,0-.338-.375.84.84,0,0,0-.523-.145.875.875,0,0,0-.429.112,1.2,1.2,0,0,0-.363.3,1.569,1.569,0,0,0-.251.441,1.491,1.491,0,0,0-.1.529.841.841,0,0,0,.224.613.745.745,0,0,0,.556.227,1.052,1.052,0,0,0,.465-.1,1.9,1.9,0,0,0,.429-.293l.577.734a2.7,2.7,0,0,1-.659.447,1.956,1.956,0,0,1-.852.166A2.124,2.124,0,0,1,279.363,376.033Z" transform="translate(-268.278 -370.353)" fill="#fff"/>
      <path id="Trazado_210" data-name="Trazado 210" d="M292.67,376a1.132,1.132,0,0,1-.32-.849,2.012,2.012,0,0,1,.039-.366c.027-.13.057-.26.094-.39l.571-2.136h1.127l-.586,2.184a1.372,1.372,0,0,0-.036.181,1.328,1.328,0,0,0-.015.175.458.458,0,0,0,.145.366.591.591,0,0,0,.4.127.731.731,0,0,0,.547-.218,1.251,1.251,0,0,0,.311-.577l.6-2.236h1.127l-1.06,3.973h-1.127l.112-.411a2.909,2.909,0,0,1-.48.338,1.207,1.207,0,0,1-.6.148A1.185,1.185,0,0,1,292.67,376Z" transform="translate(-278.112 -370.514)" fill="#fff"/>
      <path id="Trazado_211" data-name="Trazado 211" d="M309.312,375.048a.9.9,0,0,0,.659.211,1.222,1.222,0,0,0,.429-.076,1.878,1.878,0,0,0,.453-.245l.52.7a2.485,2.485,0,0,1-.64.375,2.321,2.321,0,0,1-.885.151,2.265,2.265,0,0,1-.77-.121,1.6,1.6,0,0,1-.577-.347,1.518,1.518,0,0,1-.363-.553,2.033,2.033,0,0,1-.127-.74,2.313,2.313,0,0,1,.166-.855,2.4,2.4,0,0,1,1.224-1.308,2.2,2.2,0,0,1,.967-.208,1.893,1.893,0,0,1,.689.118,1.453,1.453,0,0,1,.511.326,1.349,1.349,0,0,1,.314.489,1.693,1.693,0,0,1,.109.616,2.068,2.068,0,0,1-.051.444,2.7,2.7,0,0,1-.148.459H309.07A.862.862,0,0,0,309.312,375.048Zm1.58-1.272a.93.93,0,0,0,.036-.26.6.6,0,0,0-.151-.414.652.652,0,0,0-.5-.169,1.072,1.072,0,0,0-.68.233,1.382,1.382,0,0,0-.435.61Z" transform="translate(-289.041 -370.353)" fill="#fff"/>
      <path id="Trazado_212" data-name="Trazado 212" d="M323.263,372.1h1.127l-.112.411a2.741,2.741,0,0,1,.48-.338,1.207,1.207,0,0,1,.6-.148,1.171,1.171,0,0,1,.852.308,1.132,1.132,0,0,1,.32.849,1.774,1.774,0,0,1-.039.366c-.027.13-.057.26-.094.39l-.571,2.133H324.7l.586-2.184a1.382,1.382,0,0,0,.036-.181,1.334,1.334,0,0,0,.015-.175.463.463,0,0,0-.145-.366.591.591,0,0,0-.4-.127.733.733,0,0,0-.55.221,1.255,1.255,0,0,0-.311.574l-.6,2.236H322.2Z" transform="translate(-298.944 -370.346)" fill="#fff"/>
      <path id="Trazado_213" data-name="Trazado 213" d="M339.461,373.741a.708.708,0,0,1-.251-.556,1.608,1.608,0,0,1,.018-.245,2.414,2.414,0,0,1,.054-.254l.48-1.8h-.474l.26-.958h.474l.275-1.015h1.127l-.275,1.015h.934l-.26.958h-.934l-.444,1.674a.47.47,0,0,0-.021.094.443.443,0,0,0-.006.085c0,.157.1.239.305.239a1.392,1.392,0,0,0,.284-.033,1.439,1.439,0,0,0,.293-.094l-.26.955a1.908,1.908,0,0,1-.816.163A1.132,1.132,0,0,1,339.461,373.741Z" transform="translate(-310.815 -368.176)" fill="#fff"/>
      <path id="Trazado_214" data-name="Trazado 214" d="M349.42,372.084h1.127l-.215.8a2.421,2.421,0,0,1,.665-.68,1.324,1.324,0,0,1,.849-.2l-.32,1.178h-.06a1.5,1.5,0,0,0-.979.341,2.1,2.1,0,0,0-.622,1.118l-.378,1.408H348.36Z" transform="translate(-317.2 -370.335)" fill="#fff"/>
      <path id="Trazado_215" data-name="Trazado 215" d="M359.956,376.125a1.006,1.006,0,0,1-.363-.224,1.022,1.022,0,0,1-.323-.767,1.359,1.359,0,0,1,.133-.607,1.324,1.324,0,0,1,.363-.453,1.53,1.53,0,0,1,.541-.278,2.3,2.3,0,0,1,.674-.094,3.332,3.332,0,0,1,.6.048,4.129,4.129,0,0,1,.523.13l.015-.051c.009-.045.018-.091.03-.136a.848.848,0,0,0,.015-.16.414.414,0,0,0-.163-.338.969.969,0,0,0-.586-.13,2.557,2.557,0,0,0-.568.063,3.289,3.289,0,0,0-.492.151l-.178-.888a3.931,3.931,0,0,1,.683-.2,3.891,3.891,0,0,1,.795-.079,1.911,1.911,0,0,1,1.208.32,1.091,1.091,0,0,1,.4.9,1.711,1.711,0,0,1-.027.305c-.018.1-.039.2-.063.3l-.586,2.193H361.5l.118-.459a1.642,1.642,0,0,1-.535.4,1.539,1.539,0,0,1-.653.136A1.308,1.308,0,0,1,359.956,376.125Zm1.29-.755a1.078,1.078,0,0,0,.293-.175,1.237,1.237,0,0,0,.23-.257,1.1,1.1,0,0,0,.142-.308l.03-.1a2.1,2.1,0,0,0-.341-.1,1.949,1.949,0,0,0-.4-.039.952.952,0,0,0-.583.166.536.536,0,0,0-.227.456.382.382,0,0,0,.142.305.571.571,0,0,0,.378.118A.9.9,0,0,0,361.246,375.37Z" transform="translate(-324.814 -370.409)" fill="#fff"/>
      <path id="Trazado_216" data-name="Trazado 216" d="M383.046,369.777h-.474l.26-.958h.468l.051-.215a1.64,1.64,0,0,1,.571-.976,1.708,1.708,0,0,1,1.039-.3,2.717,2.717,0,0,1,.432.03,1.738,1.738,0,0,1,.338.082l-.245.94a1.412,1.412,0,0,0-.242-.07,1.218,1.218,0,0,0-.248-.027.522.522,0,0,0-.556.423l-.03.109h.955l-.26.958h-.934l-.816,3.015H382.23Z" transform="translate(-340.838 -367.073)" fill="#fff"/>
      <path id="Trazado_217" data-name="Trazado 217" d="M393.006,372.2a1.006,1.006,0,0,1-.363-.224,1.022,1.022,0,0,1-.323-.767,1.359,1.359,0,0,1,.133-.607,1.323,1.323,0,0,1,.363-.453,1.531,1.531,0,0,1,.541-.278,2.3,2.3,0,0,1,.674-.094,3.328,3.328,0,0,1,.6.048,4.124,4.124,0,0,1,.523.13l.015-.051c.009-.045.018-.091.03-.136a.846.846,0,0,0,.015-.16.414.414,0,0,0-.163-.338.969.969,0,0,0-.586-.13,2.557,2.557,0,0,0-.568.063,3.291,3.291,0,0,0-.492.151l-.178-.888a3.94,3.94,0,0,1,.683-.2,3.9,3.9,0,0,1,.795-.079,1.911,1.911,0,0,1,1.208.32,1.091,1.091,0,0,1,.4.9,1.711,1.711,0,0,1-.027.305c-.018.1-.039.2-.063.3l-.586,2.193h-1.088l.118-.459a1.642,1.642,0,0,1-.535.4,1.539,1.539,0,0,1-.653.136A1.286,1.286,0,0,1,393.006,372.2Zm1.287-.755a1.078,1.078,0,0,0,.293-.175,1.239,1.239,0,0,0,.23-.257,1.1,1.1,0,0,0,.142-.308l.03-.1a2.1,2.1,0,0,0-.341-.1,1.941,1.941,0,0,0-.4-.039.953.953,0,0,0-.583.166.536.536,0,0,0-.227.456.382.382,0,0,0,.142.305.571.571,0,0,0,.378.118A.9.9,0,0,0,394.293,371.441Zm1.272-4.961.949.423-1.193.888h-.949Z" transform="translate(-347.88 -366.48)" fill="#fff"/>
      <path id="Trazado_218" data-name="Trazado 218" d="M409.1,376.033a1.777,1.777,0,0,1-.586-.363,1.652,1.652,0,0,1-.381-.562,1.919,1.919,0,0,1-.136-.737,2.218,2.218,0,0,1,.19-.915,2.409,2.409,0,0,1,.508-.74,2.455,2.455,0,0,1,.746-.5,2.223,2.223,0,0,1,.9-.184,2.327,2.327,0,0,1,.586.069,1.7,1.7,0,0,1,.456.187,1.532,1.532,0,0,1,.341.275,2,2,0,0,1,.248.335l-.861.607a1.457,1.457,0,0,0-.338-.375.84.84,0,0,0-.523-.145.875.875,0,0,0-.429.112,1.2,1.2,0,0,0-.363.3,1.569,1.569,0,0,0-.251.441,1.491,1.491,0,0,0-.1.529.841.841,0,0,0,.224.613.745.745,0,0,0,.556.227,1.052,1.052,0,0,0,.465-.1,1.9,1.9,0,0,0,.429-.293l.577.734a2.7,2.7,0,0,1-.659.447,1.956,1.956,0,0,1-.852.166A2.136,2.136,0,0,1,409.1,376.033Z" transform="translate(-358.823 -370.353)" fill="#fff"/>
      <path id="Trazado_219" data-name="Trazado 219" d="M422.236,368.948h1.127l-1.066,3.973H421.17Zm.363-1.438h1.187l-.275,1h-1.184Z" transform="translate(-368.014 -367.199)" fill="#fff"/>
      <path id="Trazado_220" data-name="Trazado 220" d="M430.423,367.51h1.127l-1.453,5.411H428.97Z" transform="translate(-373.457 -367.199)" fill="#fff"/>
      <path id="Trazado_221" data-name="Trazado 221" d="M443.869,377.376a1.541,1.541,0,0,1-.4-.2l.6-.816a.856.856,0,0,0,.208.112.646.646,0,0,0,.23.045.486.486,0,0,0,.224-.048.718.718,0,0,0,.215-.2l-.489-4h1.148l.184,2.7,1.489-2.7h1.214l-2.459,4.069a2.642,2.642,0,0,1-.752.864,1.581,1.581,0,0,1-.885.248A1.735,1.735,0,0,1,443.869,377.376Z" transform="translate(-383.577 -370.521)" fill="#fff"/>
      <path id="Trazado_222" data-name="Trazado 222" d="M468.1,372.084h1.127l-.215.8a2.422,2.422,0,0,1,.665-.68,1.324,1.324,0,0,1,.849-.2l-.32,1.178h-.06a1.5,1.5,0,0,0-.979.341,2.1,2.1,0,0,0-.622,1.118l-.378,1.408H467.04Z" transform="translate(-400.026 -370.335)" fill="#fff"/>
      <path id="Trazado_223" data-name="Trazado 223" d="M478.636,372.2a1.006,1.006,0,0,1-.363-.224,1.022,1.022,0,0,1-.323-.767,1.359,1.359,0,0,1,.133-.607,1.324,1.324,0,0,1,.363-.453,1.531,1.531,0,0,1,.541-.278,2.3,2.3,0,0,1,.674-.094,3.329,3.329,0,0,1,.6.048,4.122,4.122,0,0,1,.523.13l.015-.051c.009-.045.018-.091.03-.136a.851.851,0,0,0,.015-.16.414.414,0,0,0-.163-.338.969.969,0,0,0-.586-.13,2.557,2.557,0,0,0-.568.063,3.29,3.29,0,0,0-.492.151l-.178-.888a3.939,3.939,0,0,1,.683-.2,3.9,3.9,0,0,1,.795-.079,1.911,1.911,0,0,1,1.208.32,1.091,1.091,0,0,1,.4.9,1.711,1.711,0,0,1-.027.305c-.018.1-.039.2-.063.3l-.586,2.193h-1.088l.118-.459a1.643,1.643,0,0,1-.535.4,1.539,1.539,0,0,1-.653.136A1.307,1.307,0,0,1,478.636,372.2Zm1.29-.755a1.079,1.079,0,0,0,.293-.175,1.238,1.238,0,0,0,.23-.257,1.1,1.1,0,0,0,.142-.308l.03-.1a2.1,2.1,0,0,0-.341-.1,1.941,1.941,0,0,0-.4-.039.952.952,0,0,0-.583.166.536.536,0,0,0-.227.456.382.382,0,0,0,.142.305.571.571,0,0,0,.378.118A.894.894,0,0,0,479.926,371.441Zm1.272-4.961.949.423-1.193.888H480Z" transform="translate(-407.64 -366.48)" fill="#fff"/>
      <path id="Trazado_224" data-name="Trazado 224" d="M492.848,372.1h1.127l-.118.429a2.457,2.457,0,0,1,.523-.372,1.32,1.32,0,0,1,.6-.133,1.582,1.582,0,0,1,.6.115,1.411,1.411,0,0,1,.486.332,1.54,1.54,0,0,1,.323.538,2.136,2.136,0,0,1,.115.719,2.5,2.5,0,0,1-.677,1.737,2.28,2.28,0,0,1-.7.5,1.975,1.975,0,0,1-.816.178,1.464,1.464,0,0,1-.761-.178,1.528,1.528,0,0,1-.486-.477l-.468,1.77H491.47Zm1.752,2.985a1.16,1.16,0,0,0,.375-.293,1.51,1.51,0,0,0,.263-.438,1.487,1.487,0,0,0,.1-.553.809.809,0,0,0-.227-.61.837.837,0,0,0-.6-.218,1,1,0,0,0-.453.109,1.2,1.2,0,0,0-.381.3,1.492,1.492,0,0,0-.266.438,1.433,1.433,0,0,0-.1.532.815.815,0,0,0,.239.61.831.831,0,0,0,.616.233A1.017,1.017,0,0,0,494.6,375.08Z" transform="translate(-417.076 -370.346)" fill="#fff"/>
      <path id="Trazado_225" data-name="Trazado 225" d="M510.666,368.948h1.127l-1.066,3.973H509.6Zm.363-1.438h1.187l-.275,1h-1.184Z" transform="translate(-429.728 -367.199)" fill="#fff"/>
      <path id="Trazado_226" data-name="Trazado 226" d="M519.224,372.871a1.41,1.41,0,0,1-.486-.332,1.472,1.472,0,0,1-.323-.538,2.138,2.138,0,0,1-.115-.719,2.544,2.544,0,0,1,.184-.97,2.479,2.479,0,0,1,.492-.767,2.28,2.28,0,0,1,.7-.5,1.975,1.975,0,0,1,.816-.178,1.444,1.444,0,0,1,.758.178,1.528,1.528,0,0,1,.486.477l.535-2.021H523.4l-1.444,5.411h-1.127l.118-.435a2.372,2.372,0,0,1-.523.375,1.282,1.282,0,0,1-.6.133A1.521,1.521,0,0,1,519.224,372.871Zm1.52-.949a1.26,1.26,0,0,0,.387-.3,1.452,1.452,0,0,0,.266-.438,1.416,1.416,0,0,0,.1-.529.8.8,0,0,0-.239-.607.844.844,0,0,0-.616-.233.983.983,0,0,0-.441.1,1.193,1.193,0,0,0-.375.29,1.506,1.506,0,0,0-.363.991.8.8,0,0,0,.227.607.838.838,0,0,0,.6.217A1,1,0,0,0,520.744,371.923Z" transform="translate(-435.8 -367.192)" fill="#fff"/>
      <path id="Trazado_227" data-name="Trazado 227" d="M536.395,376.01a1.732,1.732,0,0,1-.6-.381,1.629,1.629,0,0,1-.381-.583,2.024,2.024,0,0,1-.133-.737,2.186,2.186,0,0,1,.178-.861,2.332,2.332,0,0,1,.489-.734,2.412,2.412,0,0,1,.731-.511,2.105,2.105,0,0,1,.9-.193,2.208,2.208,0,0,1,.8.136,1.732,1.732,0,0,1,.6.381,1.628,1.628,0,0,1,.381.583,2.012,2.012,0,0,1,.133.737,2.114,2.114,0,0,1-.181.858,2.411,2.411,0,0,1-1.224,1.245,2.088,2.088,0,0,1-.894.193A2.03,2.03,0,0,1,536.395,376.01Zm1.32-.946a1.3,1.3,0,0,0,.36-.317,1.432,1.432,0,0,0,.23-.423,1.335,1.335,0,0,0,.082-.447.907.907,0,0,0-.239-.677.843.843,0,0,0-.622-.236.9.9,0,0,0-.471.127,1.3,1.3,0,0,0-.36.317,1.45,1.45,0,0,0-.23.426,1.36,1.36,0,0,0-.082.444.907.907,0,0,0,.239.677.843.843,0,0,0,.622.236A.876.876,0,0,0,537.715,375.064Z" transform="translate(-447.65 -370.339)" fill="#fff"/>
    </g>
    <g id="Grupo_362" data-name="Grupo 362" transform="translate(213.803 248.001)">
      <path id="Trazado_228" data-name="Trazado 228" d="M561.287,340.589a1.869,1.869,0,0,1-3.737,0A1.869,1.869,0,0,1,561.287,340.589Z" transform="translate(-557.55 -329.066)" fill="#fff"/>
      <path id="Trazado_229" data-name="Trazado 229" d="M583.968,318.242a6.58,6.58,0,0,1-4.93,2.024c-3.71,0-6.8-2.233-6.8-6.773s3.088-6.773,6.8-6.773a6.08,6.08,0,0,1,4.619,1.894l-2,2.1a3.888,3.888,0,0,0-2.568-1.012,3.6,3.6,0,0,0-3.686,3.788,3.486,3.486,0,0,0,3.631,3.737,3.858,3.858,0,0,0,2.8-1.063Z" transform="translate(-567.802 -306.72)" fill="#fff"/>
      <path id="Trazado_230" data-name="Trazado 230" d="M625.311,313.748a6.655,6.655,0,1,1-6.695-6.668A6.464,6.464,0,0,1,625.311,313.748Zm-10.145,0a3.488,3.488,0,1,0,6.955,0,3.613,3.613,0,0,0-3.477-3.788A3.514,3.514,0,0,0,615.166,313.748Z" transform="translate(-595.55 -306.971)" fill="#fff"/>
      <path id="Trazado_231" data-name="Trazado 231" d="M669.21,320.184v-6.849c0-1.686-.882-3.217-2.619-3.217-1.713,0-2.725,1.532-2.725,3.217v6.852H660.7V307.368h2.933l.233,1.556a3.709,3.709,0,0,1,3.375-1.764,3.833,3.833,0,0,1,3.788,2.387,4.632,4.632,0,0,1,4.281-2.335c3.631,0,5.423,2.233,5.423,6.072v6.9h-3.166v-6.9c0-1.686-.7-3.115-2.414-3.115a2.911,2.911,0,0,0-2.776,3.166v6.852H669.21Z" transform="translate(-629.537 -307.027)" fill="#fff"/>
    </g>
    <path id="Trazado_232" data-name="Trazado 232" d="M228.59,307.02v6.8c0,1.9,1,3.369,2.915,3.474a3.492,3.492,0,0,0,3.541-3.562v-6a.709.709,0,0,1,.71-.71h2.477v13.018h-2.873l-.211-1.764a5.792,5.792,0,0,1-4.4,1.949c-3.112,0-5.378-2.344-5.378-6.378v-6.115a.709.709,0,0,1,.71-.71h2.511Z" transform="translate(-111.921 -58.928)" fill="#fff"/>
    <path id="Trazado_233" data-name="Trazado 233" d="M282.53,289.04v18.423h-3.19v-17.71a.709.709,0,0,1,.71-.71h2.48Z" transform="translate(-149.587 -46.38)" fill="#fff"/>
    <path id="Trazado_234" data-name="Trazado 234" d="M303.153,289.052V294.5h3.586v2.767h-3.613v5.613a1.612,1.612,0,0,0,1.686,1.843,3.653,3.653,0,0,0,1.556-.4l.894,2.74a7.2,7.2,0,0,1-2.662.553c-2.819.106-4.665-1.5-4.665-4.743V297.26H297.51V295.2a.709.709,0,0,1,.71-.71h1.713V289.75a.71.71,0,0,1,.713-.71Z" transform="translate(-162.267 -46.38)" fill="#fff"/>
    <path id="Trazado_235" data-name="Trazado 235" d="M340.784,290.551a1.9,1.9,0,0,1-3.794,0A1.9,1.9,0,0,1,340.784,290.551Zm-3.5,4.323v12.335h3.214V294.164h-2.5A.705.705,0,0,0,337.28,294.874Z" transform="translate(-189.82 -46.124)" fill="#fff"/>
    <path id="Trazado_236" data-name="Trazado 236" d="M360.14,324.773V307.06a.709.709,0,0,1,.71-.71h2.293l.211,1.792a5.156,5.156,0,0,1,4.217-2.082,6.5,6.5,0,0,1,6.668,6.8c0,3.794-2.4,6.8-6.562,6.8-1.372,0-3.4-.423-4.323-1.843v6.955Zm10.885-11.915a3.689,3.689,0,1,0-7.378,0,3.689,3.689,0,1,0,7.378,0Z" transform="translate(-205.976 -58.258)" fill="#fff"/>
    <path id="Trazado_237" data-name="Trazado 237" d="M419.81,289.04v18.423h-3.19v-17.71a.709.709,0,0,1,.71-.71h2.48Z" transform="translate(-245.393 -46.38)" fill="#fff"/>
    <path id="Trazado_238" data-name="Trazado 238" d="M441.3,290.551a1.9,1.9,0,0,1-3.794,0A1.9,1.9,0,0,1,441.3,290.551Zm-3.5,4.323v12.335h3.214V294.164h-2.5A.705.705,0,0,0,437.8,294.874Z" transform="translate(-259.972 -46.124)" fill="#fff"/>
    <path id="Trazado_239" data-name="Trazado 239" d="M463.614,275.413v13l6.356-8.6h3.849V280l-7.281,9.308,6.036,8.4v.239H468.7l-5.088-7.64v7.64H460.4V276.709c0-.393.317-1.3.71-1.3h2.5Z" transform="translate(-275.947 -36.868)" fill="#fff"/>
    <path id="Trazado_240" data-name="Trazado 240" d="M514.258,306.294h3.085v12.994h-3.03l-.16-1.9c-.737,1.529-2.767,2.266-4.217,2.293-3.849.027-6.695-2.344-6.695-6.9,0-4.48,2.979-6.825,6.773-6.8a4.77,4.77,0,0,1,4.139,2.109Zm-7.8,6.483a3.721,3.721,0,0,0,3.849,3.952c5.06,0,5.06-7.879,0-7.879A3.7,3.7,0,0,0,506.457,312.777Z" transform="translate(-305.844 -58.202)" fill="#fff"/>
  </g>
</svg>
