<svg xmlns="http://www.w3.org/2000/svg" width="20" height="20" viewBox="0 0 20 20">
  <g id="Grupo_565" data-name="Grupo 565" transform="translate(-114.5 -331.5)">
    <rect id="Rectángulo_441" data-name="Rectángulo 441" width="20" height="20" transform="translate(114.5 331.5)" fill="none"/>
    <path id="question-square" d="M17,33.821V47.179A1.821,1.821,0,0,1,15.179,49H1.821A1.821,1.821,0,0,1,0,47.179V33.821A1.821,1.821,0,0,1,1.821,32H15.179A1.821,1.821,0,0,1,17,33.821ZM15.179,46.951v-12.9a.228.228,0,0,0-.228-.228H2.049a.228.228,0,0,0-.228.228v12.9a.228.228,0,0,0,.228.228h12.9a.228.228,0,0,0,.228-.228ZM12.57,38.405c0,2.544-2.748,2.584-2.748,3.524v.24a.455.455,0,0,1-.455.455H7.634a.455.455,0,0,1-.455-.455v-.329c0-1.356,1.028-1.9,1.805-2.334.666-.374,1.075-.628,1.075-1.122,0-.654-.835-1.089-1.51-1.089-.88,0-1.286.417-1.857,1.137a.456.456,0,0,1-.632.081L5,37.713a.456.456,0,0,1-.1-.621A4.266,4.266,0,0,1,8.72,35.036C10.582,35.036,12.57,36.489,12.57,38.405ZM10.094,44.75A1.594,1.594,0,1,1,8.5,43.156,1.6,1.6,0,0,1,10.094,44.75Z" transform="translate(116 301)" fill="#007db3"/>
  </g>
</svg>
