<svg xmlns="http://www.w3.org/2000/svg" width="20" height="20" viewBox="0 0 20 20">
  <g id="Grupo_562" data-name="Grupo 562" transform="translate(-114 -226)">
    <rect id="Rectángulo_438" data-name="Rectángulo 438" width="20" height="20" transform="translate(114 226)" fill="none"/>
    <path id="tag" d="M16.533,7.5,9.5.467A1.594,1.594,0,0,0,8.371,0H1.594A1.594,1.594,0,0,0,0,1.594V8.371A1.594,1.594,0,0,0,.467,9.5L7.5,16.533a1.594,1.594,0,0,0,2.254,0l6.777-6.777a1.594,1.594,0,0,0,0-2.254Zm-7.9,7.9L1.594,8.371V1.594H8.371l7.035,7.035ZM6.375,4.781A1.594,1.594,0,1,1,4.781,3.187,1.594,1.594,0,0,1,6.375,4.781Z" transform="translate(115.5 227.5)" fill="#007db3"/>
  </g>
</svg>
