<svg xmlns="http://www.w3.org/2000/svg" width="64" height="64" viewBox="0 0 64 64">
  <path id="instagram" d="M31.932,47.416A16.409,16.409,0,1,0,48.337,63.825,16.381,16.381,0,0,0,31.932,47.416Zm0,27.077A10.668,10.668,0,1,1,42.6,63.825,10.686,10.686,0,0,1,31.932,74.493Zm20.9-27.748a3.826,3.826,0,1,1-3.826-3.827A3.818,3.818,0,0,1,52.835,46.745ZM63.7,50.629c-.243-5.127-1.413-9.668-5.169-13.41s-8.281-4.913-13.407-5.17c-5.283-.3-21.117-.3-26.4,0-5.111.243-9.652,1.414-13.407,5.155S.407,45.488.15,50.615c-.3,5.284-.3,21.121,0,26.405.243,5.127,1.413,9.668,5.169,13.41S13.6,95.343,18.725,95.6c5.283.3,21.117.3,26.4,0,5.126-.243,9.666-1.414,13.407-5.17s4.912-8.283,5.169-13.41c.3-5.284.3-21.107,0-26.391ZM56.875,82.69a10.8,10.8,0,0,1-6.082,6.084c-4.212,1.671-14.206,1.285-18.861,1.285s-14.663.371-18.861-1.285A10.8,10.8,0,0,1,6.989,82.69C5.318,78.477,5.7,68.481,5.7,63.825S5.333,49.158,6.989,44.96a10.8,10.8,0,0,1,6.082-6.084c4.212-1.671,14.206-1.285,18.861-1.285S46.6,37.22,50.793,38.876a10.8,10.8,0,0,1,6.082,6.084c1.67,4.213,1.285,14.21,1.285,18.865S58.546,78.492,56.875,82.69Z" transform="translate(0.075 -31.825)" fill="#fff"/>
</svg>
