<svg xmlns="http://www.w3.org/2000/svg" width="20" height="20" viewBox="0 0 20 20">
  <g id="Grupo_560" data-name="Grupo 560" transform="translate(-114 -157)">
    <rect id="Rectángulo_436" data-name="Rectángulo 436" width="20" height="20" transform="translate(114 157)" fill="none"/>
    <path id="home" d="M19.828,39.5l-2.022-1.663V34.521a.278.278,0,0,0-.278-.278H16.416a.278.278,0,0,0-.276.274v1.952l-4.867-4a1.947,1.947,0,0,0-2.491,0L.227,39.5a.556.556,0,0,0-.069.783l.356.427a.556.556,0,0,0,.782.069L2.25,40v6.469a1.114,1.114,0,0,0,1.111,1.111H7.805a1.114,1.114,0,0,0,1.111-1.111V42.855h2.222v3.611a1.114,1.114,0,0,0,1.111,1.111h4.444a1.114,1.114,0,0,0,1.111-1.1V40l.956.785a.556.556,0,0,0,.782-.069l.355-.427a.556.556,0,0,0-.071-.784ZM16.133,45.91H12.805V42.3a1.114,1.114,0,0,0-1.111-1.111H8.361A1.114,1.114,0,0,0,7.25,42.3V45.91H3.916V38.628l6.111-5.022,6.111,5.019Z" transform="translate(113.972 127.178)" fill="#007db3"/>
  </g>
</svg>
