<svg xmlns="http://www.w3.org/2000/svg" width="20" height="20" viewBox="0 0 20 20">
  <g id="Grupo_580" data-name="Grupo 580" transform="translate(-114.5 -366)">
    <path id="comment-dots" d="M4.757,37.893a1.071,1.071,0,1,0,1.071,1.071A1.07,1.07,0,0,0,4.757,37.893Zm3.75,0a1.071,1.071,0,1,0,1.071,1.071A1.07,1.07,0,0,0,8.507,37.893Zm3.75,0a1.071,1.071,0,1,0,1.071,1.071A1.07,1.07,0,0,0,12.257,37.893ZM8.507,32C3.773,32-.064,35.117-.064,38.964a6.155,6.155,0,0,0,1.771,4.229A8.5,8.5,0,0,1,.153,45.644.8.8,0,0,0,.739,47,8.124,8.124,0,0,0,5.4,45.45a10.341,10.341,0,0,0,3.11.479c4.734,0,8.571-3.117,8.571-6.964S13.242,32,8.507,32Zm0,12.321a8.7,8.7,0,0,1-2.625-.405l-.76-.241-.653.462a7.2,7.2,0,0,1-1.925.971,8.4,8.4,0,0,0,.666-1.346l.355-.941-.69-.73a4.605,4.605,0,0,1-1.333-3.127c0-2.953,3.124-5.357,6.964-5.357s6.964,2.4,6.964,5.357S12.348,44.321,8.507,44.321Z" transform="translate(116.066 336.5)" fill="#007db3"/>
    <rect id="Rectángulo_448" data-name="Rectángulo 448" width="20" height="20" transform="translate(114.5 366)" fill="none"/>
  </g>
</svg>
