<svg xmlns="http://www.w3.org/2000/svg" width="56.3" height="56.256" viewBox="0 0 56.3 56.256">
  <g id="noun-offer-2918250" transform="translate(-84.003 -14)">
    <path id="Trazado_1198" data-name="Trazado 1198" d="M207.8,120.96A16.835,16.835,0,1,0,224.631,137.8,16.862,16.862,0,0,0,207.8,120.96Zm-5.809,8a3.023,3.023,0,1,1-3.023,3.023A3.036,3.036,0,0,1,201.986,128.962Zm-.119,16.954a1.437,1.437,0,0,1-2.134,0,1.574,1.574,0,0,1,0-2.193l13.99-14.049a1.551,1.551,0,1,1,2.193,2.193Zm11.737.712a3.023,3.023,0,1,1,3.023-3.023A3.036,3.036,0,0,1,213.6,146.628Z" transform="translate(-95.635 -95.638)" fill="#fff"/>
    <path id="Trazado_1199" data-name="Trazado 1199" d="M138.717,38.3a6.2,6.2,0,0,1-1.6-6.047,5.6,5.6,0,0,0-.533-4.149,5.341,5.341,0,0,0-3.32-2.549,6.349,6.349,0,0,1-4.446-4.446,5.481,5.481,0,0,0-6.7-3.853,6.23,6.23,0,0,1-6.047-1.66,5.438,5.438,0,0,0-7.706,0,6.271,6.271,0,0,1-6.105,1.6,5.481,5.481,0,0,0-6.7,3.853A6.349,6.349,0,0,1,91.116,25.5a5.481,5.481,0,0,0-3.853,6.7,6.23,6.23,0,0,1-1.66,6.047,5.438,5.438,0,0,0,0,7.706A6.2,6.2,0,0,1,87.2,52a5.6,5.6,0,0,0,.533,4.149,5.341,5.341,0,0,0,3.32,2.549A6.349,6.349,0,0,1,95.5,63.143,5.48,5.48,0,0,0,102.2,67a6.23,6.23,0,0,1,6.047,1.66,5.483,5.483,0,0,0,3.853,1.6,5.38,5.38,0,0,0,3.853-1.6,6.2,6.2,0,0,1,6.047-1.6,5.481,5.481,0,0,0,6.7-3.853,6.349,6.349,0,0,1,4.446-4.446,5.449,5.449,0,0,0,3.853-6.7,6.341,6.341,0,0,1,1.6-6.047,5.336,5.336,0,0,0,.118-7.706ZM112.16,62.076a19.918,19.918,0,1,1,19.918-19.918A19.961,19.961,0,0,1,112.16,62.076Z" transform="translate(0 0)" fill="#fff"/>
  </g>
</svg>
