<svg xmlns="http://www.w3.org/2000/svg" width="52.844" height="53.465" viewBox="0 0 52.844 53.465">
  <g id="noun-share-5010433" transform="translate(-968.239 66.001)">
    <path id="Trazado_1289" data-name="Trazado 1289" d="M114.635,87.836a9.59,9.59,0,0,0,5.978-2.091,22.782,22.782,0,0,0,21.59,0,9.634,9.634,0,1,0,11.561-15.4,22.792,22.792,0,0,0-12.725-25.425c0-.091.014-.18.014-.27a9.645,9.645,0,0,0-19.291,0c0,.091.011.18.014.27A22.792,22.792,0,0,0,109.051,70.34a9.635,9.635,0,0,0,5.583,17.5Zm-2.307-22.225a19.086,19.086,0,0,1,10.33-16.935,9.627,9.627,0,0,0,17.5,0A18.871,18.871,0,0,1,150.2,68.764,9.64,9.64,0,0,0,139.7,82.771a18.841,18.841,0,0,1-16.575,0,9.638,9.638,0,0,0-10.508-14.007,19.015,19.015,0,0,1-.284-3.152Z" transform="translate(863.251 -101)" fill="#fff"/>
  </g>
</svg>
