<svg xmlns="http://www.w3.org/2000/svg" width="49.031" height="42" viewBox="0 0 49.031 42">
  <path id="Trazado_1178" data-name="Trazado 1178" d="M145.63,68.863H110.437a6.923,6.923,0,0,0-6.919,6.91v28.172a6.926,6.926,0,0,0,6.919,6.918H145.63a6.926,6.926,0,0,0,6.919-6.918V75.773a6.922,6.922,0,0,0-6.919-6.91Zm-.522,11.593-16.248,13.3a1.306,1.306,0,0,1-1.654,0l-16.248-13.3a1.306,1.306,0,1,1,1.655-2.02l15.42,12.62,15.421-12.62a1.305,1.305,0,1,1,1.654,2.02Z" transform="translate(-103.518 -68.863)" fill="#fff"/>
</svg>
