<svg xmlns="http://www.w3.org/2000/svg" width="183.052" height="183.052" viewBox="0 0 183.052 183.052">
  <path id="Exclusión_5" data-name="Exclusión 5" d="M91.526,183.052a92.2,92.2,0,0,1-18.446-1.859A91.025,91.025,0,0,1,40.353,167.42a91.793,91.793,0,0,1-33.16-40.269,91.064,91.064,0,0,1-5.333-17.18,92.418,92.418,0,0,1,0-36.891A91.025,91.025,0,0,1,15.631,40.353,91.793,91.793,0,0,1,55.9,7.193,91.065,91.065,0,0,1,73.08,1.859a92.418,92.418,0,0,1,36.891,0A91.025,91.025,0,0,1,142.7,15.631,91.793,91.793,0,0,1,175.859,55.9a91.064,91.064,0,0,1,5.333,17.18,92.417,92.417,0,0,1,0,36.891A91.025,91.025,0,0,1,167.42,142.7a91.793,91.793,0,0,1-40.269,33.16,91.063,91.063,0,0,1-17.18,5.333A92.2,92.2,0,0,1,91.526,183.052Zm0-159.572a68.047,68.047,0,1,0,68.047,68.047A68.124,68.124,0,0,0,91.526,23.479Z" fill="#0e8ebf"/>
</svg>
