<svg xmlns="http://www.w3.org/2000/svg" width="32" height="26.857" viewBox="0 0 32 26.857">
  <path id="bars" d="M31.143,72H.857A.857.857,0,0,1,0,71.143V68.857A.857.857,0,0,1,.857,68H31.143a.857.857,0,0,1,.857.857v2.286A.857.857,0,0,1,31.143,72Zm0,11.429H.857A.857.857,0,0,1,0,82.571V80.286a.857.857,0,0,1,.857-.857H31.143a.857.857,0,0,1,.857.857v2.286A.857.857,0,0,1,31.143,83.429Zm0,11.429H.857A.857.857,0,0,1,0,94V91.714a.857.857,0,0,1,.857-.857H31.143a.857.857,0,0,1,.857.857V94A.857.857,0,0,1,31.143,94.857Z" transform="translate(0 -68)" fill="#fff"/>
</svg>
