<svg xmlns="http://www.w3.org/2000/svg" width="45.933" height="45.933" viewBox="0 0 45.933 45.933">
  <g id="noun-price-1805880" transform="translate(-2460.629 -496.668)">
    <path id="Trazado_1282" data-name="Trazado 1282" d="M139.637,46.668A22.967,22.967,0,1,0,162.6,69.635,22.967,22.967,0,0,0,139.637,46.668Zm1.816,33.208v3.4h-3.625v-3.2A9.568,9.568,0,0,1,133.4,78.6l-.51-.365,1.319-3.682.883.59a7.436,7.436,0,0,0,4.034,1.2c1.726,0,2.884-.9,2.884-2.23,0-.9-.364-1.873-3.009-2.946-2.8-1.1-5.668-2.69-5.668-6.168a5.814,5.814,0,0,1,4.714-5.7V55.992h3.594v3.081a8.856,8.856,0,0,1,3.648,1.153l.605.354L144.52,64.2l-.844-.482a6.723,6.723,0,0,0-3.522-.952c-1.829,0-2.479.958-2.479,1.854,0,.97.484,1.6,3.359,2.792,2.488,1.015,5.35,2.671,5.35,6.479a6.165,6.165,0,0,1-4.931,5.981Z" transform="translate(2343.959 450)" fill="#fff"/>
  </g>
</svg>
