<svg xmlns="http://www.w3.org/2000/svg" width="37.052" height="50.756" viewBox="0 0 37.052 50.756">
  <g id="noun-gps-1694885" transform="translate(-179.67 -46.668)">
    <path id="Trazado_1290" data-name="Trazado 1290" d="M198.2,46.668A18.551,18.551,0,0,0,179.67,65.194c0,9.918,17.014,30.962,17.745,31.855a1.015,1.015,0,0,0,.781.376,1.037,1.037,0,0,0,.792-.376c.721-.893,17.734-21.937,17.734-31.855A18.544,18.544,0,0,0,198.2,46.668Zm0,26.393a7.867,7.867,0,1,1,7.867-7.867A7.88,7.88,0,0,1,198.2,73.061Z" transform="translate(0)" fill="#fff"/>
  </g>
</svg>
