<svg xmlns="http://www.w3.org/2000/svg" width="60" height="60" viewBox="0 0 60 60">
  <g id="Grupo_595" data-name="Grupo 595" transform="translate(-320 -3868.608)">
    <circle id="Elipse_26" data-name="Elipse 26" cx="30" cy="30" r="30" transform="translate(320 3868.608)" fill="#cdf7bd"/>
    <path id="Trazado_411" data-name="Trazado 411" d="M78.116,173.192a1.72,1.72,0,0,1-2.431,0L64.506,162.014a1.72,1.72,0,0,1,0-2.432l2.431-2.431a1.72,1.72,0,0,1,2.432,0l7.531,7.529,16.13-16.123a1.72,1.72,0,0,1,2.432,0l2.431,2.431a1.72,1.72,0,0,1,0,2.432L78.116,173.2Z" transform="translate(270.621 3737.734)" fill="#66a836"/>
  </g>
</svg>
